<!--?xml version="1.0" encoding="utf-8"?-->
<!-- Generator: Adobe Illustrator 15.1.0, SVG Export Plug-In . SVG Version: 6.00 Build 0)  -->

<svg version="1.1" id="_x32_" xmlns="http://www.w3.org/2000/svg" xmlns:xlink="http://www.w3.org/1999/xlink" x="0px" y="0px" width="512px" height="512px" viewBox="0 0 512 512" style="width: 256px; height: 256px; opacity: 1;" xml:space="preserve">
<style type="text/css">

	.st0{fill:#4B4B4B;}

</style>
<g>
	<path class="st0" d="M188.172,77.531h135.641c9.516,0,17.219-7.719,17.219-17.219V17.188c0-9.5-7.703-17.188-17.219-17.188H188.172
		c-9.5,0-17.203,7.688-17.203,17.188v43.125C170.969,69.813,178.672,77.531,188.172,77.531z" style="fill: rgb(34, 34, 34);"></path>
	<path class="st0" d="M279.844,462.281v-23.969c9.172-27.5,79.797-145.75,103.063-171.969
		c-24.609-63.438-45.516-120.406-51.109-172.813H256h-75.797c-5.594,52.406-26.484,109.375-51.109,172.813
		c23.266,26.219,93.891,144.469,103.063,171.969v23.969c-6.438,5.094-10.547,12.969-10.547,21.813
		C221.609,499.5,234.094,512,249.5,512v-49.422v-6.359V261.313c-10.5-2.875-18.219-12.453-18.219-23.844
		c0-13.656,11.063-24.719,24.719-24.719s24.719,11.063,24.719,24.719c0,11.391-7.719,20.969-18.219,23.844v194.906v6.359V512
		c15.406,0,27.891-12.5,27.891-27.906C290.391,475.25,286.281,467.375,279.844,462.281z" style="fill: rgb(34, 34, 34);"></path>
</g>
</svg>
